<mxfile host="app.diagrams.net" modified="2023-04-18T03:44:26.320Z" agent="Mozilla/5.0 (Macintosh; Intel Mac OS X 10_15_7) AppleWebKit/537.36 (KHTML, like Gecko) Chrome/112.0.0.0 Safari/537.36" etag="O4GrAaPmIaC_tROoV872" version="21.1.8" type="github">
  <diagram name="Page-1" id="UefgsE0BwaqBg-f_MFEa">
    <mxGraphModel dx="1434" dy="725" grid="1" gridSize="10" guides="1" tooltips="1" connect="1" arrows="1" fold="1" page="1" pageScale="1" pageWidth="1100" pageHeight="850" math="0" shadow="0">
      <root>
        <mxCell id="0" />
        <mxCell id="1" parent="0" />
        <mxCell id="9_0XKeuwv81NGNceWJ6u-2" value="" style="shape=image;verticalLabelPosition=bottom;labelBackgroundColor=default;verticalAlign=top;aspect=fixed;imageAspect=0;image=data:image/jpeg,/9j/4AAQSkZJRgABAQAAAQABAAD/2wCEAAoHCBUWFRgWFhUZGBgaGhgaGBocGRgaGhoYGhkaGhocGRocIS4lHB4rIRgaJjgmKy8xNTU1GiQ7QDs0Py40NTEBDAwMEA8QHxISHjQrJSs3NDQ0NDQ0NDQ0NDExNDQ0NDU0NDQ0NDQ0NDQ0NDQ0NDQ0NDQ0NDQ0NDQ0NDQ0NDQ0NP/AABEIAMIBAwMBIgACEQEDEQH/xAAbAAABBQEBAAAAAAAAAAAAAAADAAECBAUGB//EAEIQAAIBAgIGBwQHCAIBBQAAAAECAAMRITEEBRJBUXEGImGBkbHBMnKhsgcTI1KC0fAzNEJic7PC4SSS8RQWQ4Oi/8QAGQEAAwEBAQAAAAAAAAAAAAAAAQIDAAQF/8QAKREAAgIBAwMDBQEBAQAAAAAAAAECEQMEITESIkEyUYEjJDNhcROxBf/aAAwDAQACEQMRAD8A87p6W437Q4NjHVqTe3TCcWU274ALuka2Tcm8pM6q2LravU4JUBOGDdvbA1aDpfaQ42FxYi2WfhAtn3L5CFp6Q4yY+ngZt6Ntexb0NCFNxbH0EITJUKhdbnO5EFWMn5HXBF1m30eXB+af5TCV5vdHRcPzT/KTzehl8HrR0qr1D7j/ACtOF1p7HcvpPQNn7M+4/wApnn+tPYPJfSR03LK6oufR9++U+bfI89J6Tj7NffHkZ5x9Ho/5tPm39t56T0nX7NffHkZPUr6qYmDhI8z6cnCl7v5zu6y9TuHpOE6cm/1Xuj1noNVPsxyHpGzPsh8jYl9SfwZOx1PxTz3W3s97ec9MVOocN5nmutx1e8+cvpJbsjq12oqv7I7psaOMByEx39kc5u6M7AKASAALWnfZwVuA1qLUzzAy7ZhhiJva5qN9XiT7QzN+Mw7gi5Fu0ZeEtj3iRyeojYHsPw/1IsCImEdXw4yog0lInHLwjqYUwNEgbyLSdpB46YrQ0kDIRxHTEaCAxAyIjgxkwNExJAwYMkDKJitBdqKDvFCCiX1Tj+Ha7VIPwzgqlbBlNxgcCDibSSNCrXbjfnY+c8Gj2L2Bq2XJb+EcYbsZPbU3ugx3qSp/KOiJcddgN91B8CIGgpmhoA6nefORrpnaWdFRQnUbaFzja2PKQqLJvkquDPInS9F1wfmnk0wSonR9F1/aYb0/yk8z7GVwetHSr7DDgj/KZ5/rgAIR2J6T0d6YFJjv+rf5TPONd5dyyOn5K6jgvfRuP+dT/H/beel9KU+zX3x5GebfRr+/U+b/ANt56f0uFqSe/wD4tDnW9ksLqSR5T03/APix/hHrPRqqfZjLJfSec9NRjS5D1npWkp1ByX0k8/44fJXG/qy+ColPqbs/ynl2u1svefmnrNFOoeZ8p5Tr4dXvPzR9I+4TVLYz6nsjn6TotESnsrd2vYXAXLDLEznqg6om5o1rDEZCehZwqO5HXSIUGyzWvckgcLDATAakQOIvmJt61wTLAkW/1MfETqwq4nNm2kAEY25eUK7jeO8Z/wC5Apwx8/CVaJJgyJJW4yLR1ImMFVOEg8Kq98hWhTA0BkgZCODKJik7xwZC8leMmBomDHBkAZIGMmBonePBxRrFoleTAEmlNDk7Dmt/KS/9Of4XRr4W9k/GeJZ64KO0m+j1Fzpt3WPlBM+4ggnCxUzeQeDV1UOo3vegk6mcWrEYIwZSMcLgi+A4wjpeTlyUjdFJhOm6J/x808mnPMs6XoomFQ9qeTSWZ9jK4PWjrNIH2Le4/wApnmfSBfJZ6fXX7Bv6b/KZ5l0iz7lkdPyWz8M0Pox/f6f4/wC289Q6YIPq0v8Af/xaeY/RcP8An0/x/wBtp6l0xA+qT3/8TK5lsyGJ98TyHpmcaXJfWepaSvUH4Z5d00I2qfJfOeqaYtlX8Mjm/FD5Kwf1pfBXp+xbtnk3SH2R3/MZ6yg6o96eU9JR1R3/ADTaV9w2oXazLcdVR2idLo+luiBFexF1C8Cud7cJlroaCiju4DE3WnjtbIybK1ie3dI6JpS/WVXfqswYqAMNom9hc4cZ6eNRtOXHJ5uSTpqPPBoa20pnT2iSpAIONiRjnMTZUgk4EZW392U1n0a9BSGuS1zge7H/AFM9qBGY9Z3aWHVC/wBs49TPpnX6RTejfIg4ZZHwlZ1t2S6yGAe+RxEtKHglGdgNu+ePn4xLY5Hx/OHfRSACVKgi4vvHEb7Su1Mj9eki40UTDLcEZjt/3FpBj6PVIy8Mx4R9LIO63LLw3TIL4KkV4jIXji0E2ogZAGODB1GoIDJAwQMmDGTBRO8UaKNYtB+HbjIOcOV46nL9bzE/snkZ5a2PRluGpVmsp2jfZW+Jxw3w3/qnH8XjYyvRHVU/yr5SbLmf1+s4iSH3NnQdJZ0Ja2DWww3CO8HqY9Rve9BDV3GElL1Fo7xKhGM6foqp2avNPJpzRqC86foq11qc08mkc3pZXCl1I6ut+xb+m/ymeZdIh5L6T0yqfsG/pv8AKZ5p0jbPkvpJYOSmbhmh9Fn7/T/H/baendOTainv/wCJnmP0Wfv9Pk/yNPS+n5+wX3/8TL5fSznxfkieW9LEu6e6vnPVNPTqDiLTy/XQBZP6an4z1HTj1ImojWDG/wCjYpfcTXs0Z+jEFcdzXHgJ5nrXRHqslNBdnNh/2OPIYmekaN7I94ek4KtrF6Lq6bO2UdVvuLMceclpfUX1O0WUuk+k7L/VZrTAQbQF+rhgRu7JzztY3ByxtLGnaS+yGdtouWPbYG1zzN/CUicQLbxnPVirZ5MnR02iVQUK3AINxjuOY8YRBdV7TaC0PR1exYXlyhq4EsLlbWNwcMp6/wD5/bhvxbPL17Us1eaRVXQiwNhexI7czv5QdTVyJ12a4B9nA3tu7BC6VphVdhCbY3bDaa5ywyEy6jG1rxc2eL2ivkfDglHum/gDpddmYsTn8OyVBjcbxiOW8esNUlbaINxnIr9ln+glFsbHH9cZLS7WFhbvvCULBxdLg4ixIwP6+EWsEAyJz3/mJmqdBTtWZzSMdhIXgYUiV5IGQjgxEzUEBjgyAMkDHTA0TikbxRrFLZVd6L3XHrJNQS+RHJjv5iNhJTzqO6xnXLZJGAGIG6Sp32htNgTjYY27I+7vkQbGZRs3VudFq+mgQ7DFgWJuRbdbKVtIBljUbAUz7x9JDSaguZCSqR0xdxRnbJnWdEh1anNP8pzJedR0TYWfmvk0jm3gyuFJSOo0g/YP/Tf5TPNekYxPJfOeg1P2b9tOpvPA/lPP+km/8PnJ4FTKZ/SzR+is/wDPTk/9tp6Z09/Yphfr5fhM8x+is/8APp8qnyNO+6Y62p1aaKhLdbaOBGGyePOVzPZojhTeSLRwushdluLWpgnxM9N1gepPMtavst/9a/NPStZHqfrhNq39ti+RcC+6yf1GZoj2Aw/i/KeZa9UsqKuZNhzL2E9I0c4D3/ynA6WdlS+ewrFRxcsVQf8AYjwnPpPUdeqrpZna0TaR6lurtpRVrYAUxdz+JvWYz1LHDdvM6PTaNqb6OM6dJSTxdWDOTxxdh3Cc3WAnrdVOl42PHlHa353Ok1FUL3xUdU3ZsABx5/lL+n6atiiHDC7feIwvOXp6xamioijZtds9otvxv8JeDgrcYZHtx4zqWV9PQtlyQ/zj1db3fBFm3QTmOzQbmZILYCoZXaGqGAaOhGaGq2QtsvfC+yRbvGMbWirfqtfmLfnKVB9lgeBlrTlF8GB8Y7V0/gVOtjMcQcM6wBgaKRHvHBkY8jLkNEhJAyAMeZMDQS8UjeKNYtF4lvuN4SQc/dbwkxXe3tt4mTTSnH8Z4445cZwJujuaVgHrDf5GMtQHtO7mZcbS3a17YhTawtcrc7ow0lx93D+VfyjKb9gOC9zX1dSK08RYkk2OYtbdB11xvjLmgPt0g7EbXWAthexlSqvZOeUt2dKjsgDWxw3zouiTWFQnDFfGzTnAu63xm/0f0VXRwdzKeZsc+VpLLXSyuFdyOnqODTf+nU8j+c8/6SL7X4Z3zoFoOo3U38p5/wBIWwbmsnp3bKZ1UWXvoxrKunIzMFWz4sQB+zO8z0TpzpNN6S7DozbZ9lgTbZOdjPD1pkqwG8ib/RmkQSpAwXPvls0e1sjp/XEP0mq7JQfeVB/+rz1PTtIVlsrA24G+6eS9LfbpD+VZ3XR9iUccGHxB/KRztyxRXsmVxxSzSfu0XaJwHvThq7qppBvZXb0hxxWmWCL3vO5ojIfzj0nmuuK4YVnX2Xdaaf0qR/yaxjaCO7k/G4uulSUV5G0Ms5qscWNKqzHtNifiZjLTvbffvlpyQBYkbsD8JoalfquLdU4E7wD6Tti/c4pxvZGHsm+yRbhz4d8tO5AUjDAflH0nRSlyRYXstziTxm1qJdFqJ9XpAKuWurglQARiCchjjiN5nRJ9MbOdK5UYiVg3ORd5q6fqWirH6nSVYjNHtfltD8piEm9uGEfHNSWws4uL3GcwLQjQRMsiLEYZn2l7Rbw3QBkkOPw8YyfgDRF1gGh2X9XEC4mHiQMQjyMlJDko4MgY4MnZqJxSN4o1go1LSVs+R8owpv8AfTxjGk330GB4zjs7P2FGS+6vyiM0iiYDrpkBazbu2RF74utr49Vr232gSZm1ybmgP9mL8W84RoLRlUp1L7OOed74wryMuToi9gLkccZ0XRojZfmvkZzVReteb/Rl7K/NfWRzLsZbDvNHRaS/2NT3Hnn3SBva5id3pT/Yv/Teefa8bFuYiaUfVcGfo7WBJ3H0mz0a0nad8LAKD25xdDdRrpukDR3ZlVgxLLa/VW+FwR8J22tOhFLQFD06juXOyQ+xYAC+GyonRlroZz4ZVOKOP6Vjr0vcWdvqEqq1GOAAUknDiJxPS326XuLNvWmnpSQqwVg4W6lmFxcHIZ4jeR3yaj1RjH+lJy6XOX8KWtNcO7EUqg2bmwBKkYjG4xJNuWM5vS8E2LAbNsBuxuZb0nScOoi07/dA2v8AtM5ltczsjFRXSuDz5TcpW+SWkYKDNfo/RJQkA2J3AncJj6c42bXxm3qGqVpjZYjE3sSJN+kvF9wLWuj9db5WwB4zKRbubZZNwnQa3pu+xdjmSSTfC2HxmNRY01df4iCOZJGI8QO6duKMnjTa24s5M0orI4rnkv6d0s2ybUU7zfyE5+tV2yXsAWxIGV99oTWWgFGNsQANrsJHlffKqHDv8/8AxDCKi9hJylJbjmQkicJC8siTQpKna4vgLi/K8iIxjJ0ANpNIgm+d7H0I7DKzTU0G1S6scSLL6TNqoVJU5g2MpONJSXDBCW9PlAY0dpGQZZCjiNHiMwoo8UBjSHG8lBgx9vtnKdQlG6K8htjiIkIJsLkkgAAcYzYiRvauNqa8z5w5GPfAaIpVFBFiL4d/ZDmcsnudkVsBroBkc5sdGx1X5r6zEc4zd6OrYPbiPWRzehl8C+ojb0o2ov7jTgNdnE8xO704/Yv7jek4LXmZ5iLpRtXwdL9Ef7+nu1Pkno/0kNalTP8AM3yzzf6Iv39PdqfJPRfpMa1Kl77fLOjJ6GcmH80Ty3pPjW0fDNU8xOq6WdEjUa6FV2QSC2C2uLgm2FsxOU6R/t9H5U/NZ3v0pacKejhAbNUax9xcW9B3ycU6jRTI11STPK6hFrBrkYXHOwMDXGFrjLeZd0rVxpKhYEfWIHvjmScByBEraRQGxcDGdiae6OCScXTMpid+c29VVNm2faMMZi1FtNLQ+28E1sPje50enPghU4Y4MOXAzIVjcm+R2rWFrj4y3pz7KU7ki4Nr4YW3XmY1XPM9tjj4z1tG4/4qL/Z52rT/ANm1+gzvtHafHauDyOYMrJqKqys1ICogGakXHC4vnItWwy8SPS82KGsH0ej9WoH1lQl2/lWwAvww84uSMdmg45SezOe0nQaiYOhB4YfGxg00dt48M5qfWsesxufvN6CP9cAMSWv3eAkrK0ZTUu6BcQuk1bnCViZrBQSnUIIIzEs6wIe1Qb8G7GH5yjLOiPiUPsthyP8ACfGUhO04Ph/9FlHe0VCJEiEYWwOcGZFsoho4itETFbCNeKNFFCaiin9xjzb/AFHBQXtTXvufWBWSVs5yM7FRZr1VshVFW63IABN72vcjsgW0hxkx8vKDf2U931Mg2XbNRmzZ0BmNO+JNziTeEFUiNqtfsh+Lzg2W1olbjpugu+b/AEdOD819ZzezOi6Pey9hb2fIyGddjOjTPvRs6wqXpOOFNvMTgdd5nmJ3OlexU9xpwmvMzzETSlNXsjoforrFdNDBS2zTqHZW20bJiFvgT2TvOnutaVfRqFSkwZS5x3g7OTA4qewzyfoxpdanVDUGZamIUqAxxGIsQQfCdLpeqnCipXc03qOzXK2UtndkFgL34C3KWyySuJz4YNyUvYyukD30jR+VPzWdL09VtI1lT0e91UKCOCnruTzA8pz2lrRaorvWW6BQipd9t1I2RhiLmdHqDV1VKtTSdK6r1AbbbDaFzc3sczbLcBaGO0FXNAn+R3xZkdNqtqqL/CEJA3YsR6CYLMSMJpdL9KV642WuFQC9iMyTvmGlXayN+3d/uWxRaikzmzSTm2ivpCg33GToPbjJvS4wFNwDbGWlF0ThLc19J0pjTQbRwJGZytM4vfPGNXq4C2XLHzgiw7T328p14H0wRz5lc2XdVUg9QbXsoC7DsXId5tDV3YuxvYk3ZuHYOUlqmsqI5Ki7bKqANwxYk87QZQE3JM0pdRoxpEXCjLE8TjKdapzl19kA7pnVanCKMytVMDCVIMzMUUe8jeK8FhoNpLYk8bHxFz8bwJMdzly9TIXmk7dhS2FGijXiWEe8UaKCzF5XHb3SS3t7Ji+tNs8+AAiDXtOY6kyaoSBdlGyLWJuSLk7uceyC2098RcKvqYMZ4CMYBjf0d12AUGypvYb4Isbyej6dTWmgKC4AuWqKgJ3kKoLEeEf/ANxIvsimD/LTLm/vVCR8IlPwhrXlk6GiuxGypPL/AFOk1TopQMXsgJFi5C8eJnH1ullQ4dc822R/1QATOfXlY5FV91RfxNzFlilNUxo54wdo9Pq1KeyQHGKlRsqWFzhibW+M4HpCV2jsnC4tiL+AOExqml1H9t2bmx8oKHHgUPIMuoc1VHR9D9KSnXDvtbID32W2TithjunRa/10lVVVF2ArFj1i174Y3AE4fQntvticTylp6gKtYk4fdsO6LOFysriyKMSxr6mq1aZUWJVDhxABvzl2trhybgYnNmO2/icpn66e70v6aeQgPrFGJM9bR1HGmeTq23kdEdauW6zG5JF+QlqlTAuVHV3cpk6VW2zwAlzVmlYbB/D+UTLKLm6DiUlFWH0g4So1PcZcqHfwHxgWSy9pijMpM+4w2i0SxxBA4ydCiCcfhhLKnEjgI8XUaFat2w6qFAAgqmkcIKpVgbzBbE7EwDQjQbCEUC8CYdxAsIrZiN414o0UYkTImImNM2YUaKKKEaKKKAJev2dkkpEjssc7DfiYgovme4fnI0WskGkS4/8AGMKyqCNkEggEbWeI4RBzuw5YQB3M5zckyNoSseseciFMrGNkW6YxEkJNaXGHpogxJJ5D1M0k0FOwSITuhk0Zj+v0JNtK+6oHacT8YB65ObE98nuU2RcphUzYZ+8cuAiqaUCLWY99h/1EzjVjbZm6fJnPakWq9d2ttMOqLDlAGoOcHFaVUqVIk427ZIuY9K+0CMwc5G0tUh1RziNjRVmiX2lvHc3YDgsqUHsbcfOFb2jyAloytCSVMeq1mNtwHnH27EwOkHE9p+AjM144pK8RMheMXhATvBuYN6xyAvIhSfaPdugv2MMz8MYJl4ywbSDGBmAkQlGne44AkcxINC6NV2ScL3BHjGil1K+DPgrRjFFJDDRRRQBFFFFMYvKsVpEnL9YRAj9ZyRYKx9n3V8hGBjhGsMLYAXJAyFpFgtsWJPBR6mCjWVHbrHnI7RifMyMom6JNbhA8X1p3QccCYI5YmNaEVZICYwMJJBJONAwpDBYmEeMYoRAw6ZDmZXWWEyEDDEc5jnLZe0qHdzmmPqjmHHLZYfGPGXSCUbM9m3mDfSAJZ0ymgtssd+GzY+N7ShUF8hb9bzKdZPpLtGlfEt3b42m6LiCpOz24m8NogUAFs+EB9eWuTvPhH8bikUSwjbI3ye1FCAgU4SF4S0YsJjAWW++H0B1VrsdxtvxgntwgXvyhUulprwZq1RLSgu0dk3BxH5QEUUlJ27GSpUKKKPFCKKKKYwdcxNpKY+pY2F8MbC/jFFEKeTIqmJN8UUASq2ZjRRRhBSQiihMTWTiimChoooooRRRRQGIjOHXIRRTM0RzmOcuCPFB4HXJW0vMd8qtFFHQkuS7S3cpXXfzPnFFLeCJMScUUKACOcmIopkYGfa7oKrFFMzAqmZkYooj5HXA8UUUUw0UUUAx//9k=;" vertex="1" parent="1">
          <mxGeometry x="50" y="600" width="245.7" height="184.04" as="geometry" />
        </mxCell>
        <mxCell id="9_0XKeuwv81NGNceWJ6u-4" value="" style="rounded=0;whiteSpace=wrap;html=1;" vertex="1" parent="1">
          <mxGeometry x="350" y="330" width="450" height="260" as="geometry" />
        </mxCell>
        <mxCell id="9_0XKeuwv81NGNceWJ6u-5" value="" style="triangle;whiteSpace=wrap;html=1;rotation=-90;" vertex="1" parent="1">
          <mxGeometry x="435" y="-100" width="230" height="690" as="geometry" />
        </mxCell>
      </root>
    </mxGraphModel>
  </diagram>
</mxfile>
